<svg
    xmlns="http://www.w3.org/2000/svg"
    xmlns:xlink="http://www.w3.org/1999/xlink"
    version="1.1"
    x="0px" y="0px" viewBox="0 0 100 125" enable-background="new 0 0 100 100"
    xml:space="preserve">
    <g fill="#d4d4d4">
        <rect width="10" height="10" />
        <rect x="10" y="10" width="10" height="10" />
        <rect x="30" y="10" width="10" height="10" />
        <rect x="50" y="10" width="10" height="10" />
        <rect x="70" y="10" width="10" height="10" />
        <rect x="90" y="10" width="10" height="10" />
        <rect x="20" width="10" height="10" />
        <rect x="40" width="10" height="10" />
        <rect x="60" width="10" height="10" />
        <rect x="80" width="10" height="10" />
        <rect y="20" width="10" height="10" />
        <rect x="10" y="30" width="10" height="10" />
        <rect x="30" y="30" width="10" height="10" />
        <rect x="50" y="30" width="10" height="10" />
        <rect x="70" y="30" width="10" height="10" />
        <rect x="90" y="30" width="10" height="10" />
        <rect x="20" y="20" width="10" height="10" />
        <rect x="40" y="20" width="10" height="10" />
        <rect x="60" y="20" width="10" height="10" />
        <rect x="80" y="20" width="10" height="10" />
        <rect y="40" width="10" height="10" />
        <rect x="10" y="50" width="10" height="10" />
        <rect x="30" y="50" width="10" height="10" />
        <rect x="50" y="50" width="10" height="10" />
        <rect x="70" y="50" width="10" height="10" />
        <rect x="90" y="50" width="10" height="10" />
        <rect x="20" y="40" width="10" height="10" />
        <rect x="40" y="40" width="10" height="10" />
        <rect x="60" y="40" width="10" height="10" />
        <rect x="80" y="40" width="10" height="10" />
        <rect y="60" width="10" height="10" />
        <rect x="10" y="70" width="10" height="10" />
        <rect x="30" y="70" width="10" height="10" />
        <rect x="50" y="70" width="10" height="10" />
        <rect x="70" y="70" width="10" height="10" />
        <rect x="90" y="70" width="10" height="10" />
        <rect x="20" y="60" width="10" height="10" />
        <rect x="40" y="60" width="10" height="10" />
        <rect x="60" y="60" width="10" height="10" />
        <rect x="80" y="60" width="10" height="10" />
        <rect y="80" width="10" height="10" />
        <rect x="10" y="90" width="10" height="10" />
        <rect x="30" y="90" width="10" height="10" />
        <rect x="50" y="90" width="10" height="10" />
        <rect x="70" y="90" width="10" height="10" />
        <rect x="90" y="90" width="10" height="10" />
        <rect x="20" y="80" width="10" height="10" />
        <rect x="40" y="80" width="10" height="10" />
        <rect x="60" y="80" width="10" height="10" />
        <rect x="80" y="80" width="10" height="10" />
    </g>
</svg>