<svg height="800px" width="800px" version="1.1" id="Layer_1" xmlns="http://www.w3.org/2000/svg" xmlns:xlink="http://www.w3.org/1999/xlink" 
	 viewBox="0 0 512 512" xml:space="preserve">
<polygon style="fill:#ec5242;" points="413.538,19.692 334.769,19.692 256,19.692 137.846,19.692 19.692,19.692 19.692,98.462 
	19.692,177.231 19.692,256 19.692,374.154 19.692,492.308 98.462,492.308 177.231,492.308 256,492.308 374.154,492.308 
	492.308,492.308 492.308,413.538 492.308,334.769 492.308,256 492.308,137.846 492.308,19.692 "/>
<g>
	<polygon style="fill:#ec5242;" points="413.538,19.692 334.769,19.692 256,19.692 256,492.308 374.154,492.308 492.308,492.308 
		492.308,413.538 492.308,334.769 492.308,256 492.308,137.846 492.308,19.692 	"/>
	<path style="fill:#272a31;" d="M492.308,0h-78.769h-78.769H256H19.692C8.817,0,0,8.817,0,19.692v78.769v78.769V256v236.308
		C0,503.183,8.817,512,19.692,512h78.769h78.769H256h236.308c10.875,0,19.692-8.817,19.692-19.692v-78.769v-78.769V256V19.692
		C512,8.817,503.183,0,492.308,0z M177.231,236.308H98.462H39.385v-39.385h196.923v39.385H177.231z M334.769,275.692h78.769h59.077
		v39.385H275.692v-39.385H334.769z M236.308,157.538H39.385v-39.385h196.923V157.538z M275.692,354.462h196.923v39.385H275.692
		V354.462z M472.615,236.308h-39.385V39.385h39.385V236.308z M393.846,236.308h-39.385V39.385h39.385V236.308z M315.077,236.308
		h-39.385v-59.077V98.462V39.385h39.385V236.308z M39.385,39.385h196.923v39.385H39.385V39.385z M39.385,275.692h39.385v196.923
		H39.385V275.692z M118.154,275.692h39.385v196.923h-39.385V275.692z M196.923,275.692h39.385v59.077v78.769v59.077h-39.385V275.692
		z M472.615,472.615H275.692v-39.385h196.923V472.615z"/>
</g>
<path style="fill:#272a31;" d="M492.308,0h-78.769h-78.769H256v512h236.308c10.875,0,19.692-8.817,19.692-19.692v-78.769v-78.769
	V256V19.692C512,8.817,503.183,0,492.308,0z M354.462,39.385h39.385v196.923h-39.385V39.385z M275.692,177.231V98.462V39.385h39.385
	v196.923h-39.385V177.231z M472.615,472.615H275.692v-39.385h196.923V472.615z M472.615,393.846H275.692v-39.385h196.923V393.846z
	 M472.615,315.077H275.692v-39.385h59.077h78.769h59.077V315.077z M472.615,236.308h-39.385V39.385h39.385V236.308z"/>
</svg>